{
	"asset":{
		"generator":"Khronos glTF Blender I/O v4.0.44",
		"version":"2.0"
	},
	"extensionsUsed":[
		"KHR_materials_clearcoat",
		"KHR_materials_transmission",
		"KHR_materials_specular",
		"KHR_texture_transform"
	],
	"extensionsRequired":[
		"KHR_texture_transform"
	],
	"scene":0,
	"scenes":[
		{
			"name":"Scene",
			"nodes":[
				10
			]
		}
	],
	"nodes":[
		{
			"mesh":0,
			"name":"Cube.014_basecolor.001_0.006",
			"translation":[
				3.8409605622291565e-05,
				0.05487439036369324,
				0.08236432075500488
			]
		},
		{
			"mesh":1,
			"name":"Cube.014_black.002_0.010",
			"translation":[
				0.0015023215673863888,
				-0.7757506370544434,
				0.11873793601989746
			]
		},
		{
			"mesh":2,
			"name":"Cube.014_black.002_0.011",
			"translation":[
				-0.0003116549924015999,
				0.8173335790634155,
				0.07854485511779785
			]
		},
		{
			"mesh":3,
			"name":"Cube.014_glass.002_0.006",
			"translation":[
				-0.043199118226766586,
				0.08552789688110352,
				0.08150553703308105
			]
		},
		{
			"mesh":4,
			"name":"Cube.014_metaL.001_0.006",
			"translation":[
				0.0014062258414924145,
				-0.7863942384719849,
				0.07256197929382324
			]
		},
		{
			"mesh":5,
			"name":"Cube.014_screen.001_0.006",
			"translation":[
				3.843987360596657e-05,
				0.5478914976119995,
				0.10794425010681152
			]
		},
		{
			"mesh":6,
			"name":"Cube.017_metalframe.002_0.005",
			"translation":[
				0.0003579854965209961,
				-0.07825051248073578,
				-0.30676794052124023
			]
		},
		{
			"mesh":7,
			"name":"Object.003_gray.001_0.005",
			"translation":[
				0.0011646370403468609,
				-0.7717161178588867,
				0.07207226753234863
			]
		},
		{
			"mesh":8,
			"name":"Plane.013_metaL.001_0.005",
			"translation":[
				0.0008658743463456631,
				-0.7824034690856934,
				0.26506733894348145
			]
		},
		{
			"mesh":9,
			"name":"Plane.014_metaL.001_0.005",
			"translation":[
				0.0008873282931745052,
				-0.782230019569397,
				-0.07714438438415527
			]
		},
		{
			"children":[
				0,
				1,
				2,
				3,
				4,
				5,
				6,
				7,
				8,
				9
			],
			"mesh":10,
			"name":"Cube.014_metalframe.002_0.006",
			"translation":[
				0.0033863228745758533,
				0.22464707493782043,
				-0.04499006271362305
			]
		}
	],
	"animations":[
		{
			"channels":[
				{
					"sampler":0,
					"target":{
						"node":10,
						"path":"translation"
					}
				},
				{
					"sampler":1,
					"target":{
						"node":10,
						"path":"rotation"
					}
				},
				{
					"sampler":2,
					"target":{
						"node":10,
						"path":"scale"
					}
				}
			],
			"name":"Cube.014_metalframe.002_0.006Action.001",
			"samplers":[
				{
					"input":48,
					"interpolation":"STEP",
					"output":49
				},
				{
					"input":50,
					"interpolation":"LINEAR",
					"output":51
				},
				{
					"input":48,
					"interpolation":"STEP",
					"output":52
				}
			]
		}
	],
	"materials":[
		{
			"doubleSided":true,
			"name":"basecolor.001",
			"pbrMetallicRoughness":{
				"baseColorFactor":[
					0.462675005197525,
					0.3790389895439148,
					0.32195499539375305,
					1
				],
				"metallicFactor":0,
				"roughnessFactor":0.08781006187200546
			}
		},
		{
			"doubleSided":true,
			"name":"black.004",
			"pbrMetallicRoughness":{
				"baseColorFactor":[
					0,
					0,
					0,
					1
				],
				"metallicFactor":0
			}
		},
		{
			"alphaMode":"BLEND",
			"doubleSided":true,
			"extensions":{
				"KHR_materials_clearcoat":{
					"clearcoatFactor":1,
					"clearcoatRoughnessFactor":0.03999999910593033
				},
				"KHR_materials_transmission":{
					"transmissionFactor":1
				},
				"KHR_materials_specular":{
					"specularFactor":0.4556204378604889
				}
			},
			"name":"glass.004",
			"pbrMetallicRoughness":{
				"baseColorFactor":[
					0.800000011920929,
					0.800000011920929,
					0.800000011920929,
					0.25
				],
				"metallicFactor":0,
				"roughnessFactor":0.09333056956529617
			}
		},
		{
			"doubleSided":true,
			"name":"metaL.004",
			"pbrMetallicRoughness":{
				"baseColorFactor":[
					0.7325329780578613,
					0.7325329780578613,
					0.7325329780578613,
					1
				],
				"roughnessFactor":0.9283807277679443
			}
		},
		{
			"doubleSided":true,
			"name":"fitness",
			"pbrMetallicRoughness":{
				"baseColorTexture":{
					"index":0
				},
				"metallicFactor":0,
				"roughnessFactor":0.5
			}
		},
		{
			"doubleSided":true,
			"name":"Material.001",
			"pbrMetallicRoughness":{
				"baseColorTexture":{
					"index":1
				},
				"metallicFactor":0,
				"roughnessFactor":0.5
			}
		},
		{
			"doubleSided":true,
			"name":"metalframe.002",
			"normalTexture":{
				"extensions":{
					"KHR_texture_transform":{
						"offset":[
							-6.217248937900877e-15,
							2.826383723340772e-07
						],
						"rotation":-1.5707963705062866,
						"scale":[
							16.970033645629883,
							6.466012001037598
						]
					}
				},
				"index":2
			},
			"pbrMetallicRoughness":{
				"baseColorFactor":[
					0.3864290118217468,
					0.2705000042915344,
					0.1811619997024536,
					1
				],
				"roughnessFactor":0.10000000149011612
			}
		},
		{
			"doubleSided":true,
			"name":"gray.001",
			"pbrMetallicRoughness":{
				"baseColorFactor":[
					0.36926984786987305,
					0.36926984786987305,
					0.36926984786987305,
					1
				],
				"roughnessFactor":0.23619119822978973
			}
		},
		{
			"doubleSided":true,
			"name":"metaL.001",
			"pbrMetallicRoughness":{
				"baseColorFactor":[
					0.7325329780578613,
					0.7325329780578613,
					0.7325329780578613,
					1
				],
				"roughnessFactor":0.9283807277679443
			}
		},
		{
			"doubleSided":true,
			"name":"metalframe.004",
			"normalTexture":{
				"extensions":{
					"KHR_texture_transform":{
						"offset":[
							-6.217248937900877e-15,
							2.826383723340772e-07
						],
						"rotation":-1.5707963705062866,
						"scale":[
							16.970033645629883,
							6.466012001037598
						]
					}
				},
				"index":3
			},
			"pbrMetallicRoughness":{
				"baseColorFactor":[
					0.3864290118217468,
					0.2705000042915344,
					0.1811619997024536,
					1
				],
				"roughnessFactor":0.10000000149011612
			}
		}
	],
	"meshes":[
		{
			"name":"Cube.014_basecolor.001_0.006",
			"primitives":[
				{
					"attributes":{
						"POSITION":0,
						"NORMAL":1,
						"TEXCOORD_0":2
					},
					"indices":3,
					"material":0
				}
			]
		},
		{
			"name":"Cube.014_black.002_0.010",
			"primitives":[
				{
					"attributes":{
						"POSITION":4,
						"NORMAL":5,
						"TEXCOORD_0":6
					},
					"indices":7,
					"material":1
				}
			]
		},
		{
			"name":"Cube.014_black.002_0.011",
			"primitives":[
				{
					"attributes":{
						"POSITION":8,
						"NORMAL":9,
						"TEXCOORD_0":10
					},
					"indices":11,
					"material":1
				}
			]
		},
		{
			"name":"Cube.014_glass.002_0.006",
			"primitives":[
				{
					"attributes":{
						"POSITION":12,
						"NORMAL":13,
						"TEXCOORD_0":14
					},
					"indices":15,
					"material":2
				}
			]
		},
		{
			"name":"Cube.014_metaL.001_0.006",
			"primitives":[
				{
					"attributes":{
						"POSITION":16,
						"NORMAL":17,
						"TEXCOORD_0":18
					},
					"indices":19,
					"material":3
				}
			]
		},
		{
			"name":"Cube.014_screen.001_0.006",
			"primitives":[
				{
					"attributes":{
						"POSITION":20,
						"NORMAL":21,
						"TEXCOORD_0":22
					},
					"indices":23,
					"material":4
				},
				{
					"attributes":{
						"POSITION":24,
						"NORMAL":25,
						"TEXCOORD_0":26
					},
					"indices":27,
					"material":5
				}
			]
		},
		{
			"name":"Cube.017_metalframe.002_0.006",
			"primitives":[
				{
					"attributes":{
						"POSITION":28,
						"NORMAL":29,
						"TEXCOORD_0":30
					},
					"indices":31,
					"material":6
				}
			]
		},
		{
			"name":"Object.003_gray.001_0.005",
			"primitives":[
				{
					"attributes":{
						"POSITION":32,
						"NORMAL":33,
						"TEXCOORD_0":34
					},
					"indices":35,
					"material":7
				}
			]
		},
		{
			"name":"Plane.013_metaL.001_0.005",
			"primitives":[
				{
					"attributes":{
						"POSITION":36,
						"NORMAL":37,
						"TEXCOORD_0":38
					},
					"indices":39,
					"material":8
				}
			]
		},
		{
			"name":"Plane.014_metaL.001_0.005",
			"primitives":[
				{
					"attributes":{
						"POSITION":40,
						"NORMAL":41,
						"TEXCOORD_0":42
					},
					"indices":43,
					"material":8
				}
			]
		},
		{
			"name":"Cube.014_metalframe.002_0.006",
			"primitives":[
				{
					"attributes":{
						"POSITION":44,
						"NORMAL":45,
						"TEXCOORD_0":46
					},
					"indices":47,
					"material":9
				}
			]
		}
	],
	"textures":[
		{
			"sampler":0,
			"source":0
		},
		{
			"sampler":0,
			"source":1
		},
		{
			"sampler":0,
			"source":2
		},
		{
			"sampler":0,
			"source":2
		}
	],
	"images":[
		{
			"mimeType":"image/png",
			"name":"Fitness",
			"uri":"Fitness.png"
		},
		{
			"mimeType":"image/jpeg",
			"name":"Health Care",
			"uri":"Health%20Care.jpg"
		},
		{
			"mimeType":"image/png",
			"name":"metalframe",
			"uri":"metalframe.png"
		}
	],
	"accessors":[
		{
			"bufferView":0,
			"componentType":5126,
			"count":192,
			"max":[
				0.04306497052311897,
				0.8416853547096252,
				0.39741742610931396
			],
			"min":[
				-0.043065015226602554,
				-0.8420694470405579,
				-0.3993810713291168
			],
			"type":"VEC3"
		},
		{
			"bufferView":1,
			"componentType":5126,
			"count":192,
			"type":"VEC3"
		},
		{
			"bufferView":2,
			"componentType":5126,
			"count":192,
			"type":"VEC2"
		},
		{
			"bufferView":3,
			"componentType":5123,
			"count":468,
			"type":"SCALAR"
		},
		{
			"bufferView":4,
			"componentType":5126,
			"count":1227,
			"max":[
				0.009176968596875668,
				0.005125284194946289,
				0.21621063351631165
			],
			"min":[
				-0.009519397281110287,
				-0.011444389820098877,
				-0.24808230996131897
			],
			"type":"VEC3"
		},
		{
			"bufferView":5,
			"componentType":5126,
			"count":1227,
			"type":"VEC3"
		},
		{
			"bufferView":6,
			"componentType":5126,
			"count":1227,
			"type":"VEC2"
		},
		{
			"bufferView":7,
			"componentType":5123,
			"count":2874,
			"type":"SCALAR"
		},
		{
			"bufferView":8,
			"componentType":5126,
			"count":168,
			"max":[
				0.04330248013138771,
				0.031864702701568604,
				0.10727091878652573
			],
			"min":[
				-0.04330255463719368,
				-0.03186577558517456,
				-0.10727091878652573
			],
			"type":"VEC3"
		},
		{
			"bufferView":9,
			"componentType":5126,
			"count":168,
			"type":"VEC3"
		},
		{
			"bufferView":10,
			"componentType":5126,
			"count":168,
			"type":"VEC2"
		},
		{
			"bufferView":11,
			"componentType":5123,
			"count":324,
			"type":"SCALAR"
		},
		{
			"bufferView":12,
			"componentType":5126,
			"count":108,
			"max":[
				0.00017283856868743896,
				0.8007069230079651,
				0.3879513442516327
			],
			"min":[
				-0.00017285719513893127,
				-0.8623979687690735,
				-0.38819724321365356
			],
			"type":"VEC3"
		},
		{
			"bufferView":13,
			"componentType":5126,
			"count":108,
			"type":"VEC3"
		},
		{
			"bufferView":14,
			"componentType":5126,
			"count":108,
			"type":"VEC2"
		},
		{
			"bufferView":15,
			"componentType":5123,
			"count":300,
			"type":"SCALAR"
		},
		{
			"bufferView":16,
			"componentType":5126,
			"count":1921,
			"max":[
				0.008612782694399357,
				0.00018531084060668945,
				0.07785670459270477
			],
			"min":[
				-0.008763019926846027,
				-0.000800788402557373,
				-0.0756896436214447
			],
			"type":"VEC3"
		},
		{
			"bufferView":17,
			"componentType":5126,
			"count":1921,
			"type":"VEC3"
		},
		{
			"bufferView":18,
			"componentType":5126,
			"count":1921,
			"type":"VEC2"
		},
		{
			"bufferView":19,
			"componentType":5123,
			"count":2598,
			"type":"SCALAR"
		},
		{
			"bufferView":20,
			"componentType":5126,
			"count":206,
			"max":[
				0.0443619005382061,
				0.3383433520793915,
				0.3615124225616455
			],
			"min":[
				-0.04436197504401207,
				-1.3247615098953247,
				-0.41463616490364075
			],
			"type":"VEC3"
		},
		{
			"bufferView":21,
			"componentType":5126,
			"count":206,
			"type":"VEC3"
		},
		{
			"bufferView":22,
			"componentType":5126,
			"count":206,
			"type":"VEC2"
		},
		{
			"bufferView":23,
			"componentType":5123,
			"count":420,
			"type":"SCALAR"
		},
		{
			"bufferView":24,
			"componentType":5126,
			"count":80,
			"max":[
				0.04306497052311897,
				0.3383433520793915,
				0.3615124225616455
			],
			"min":[
				0.04306464269757271,
				-1.3247615098953247,
				-0.4146357476711273
			],
			"type":"VEC3"
		},
		{
			"bufferView":25,
			"componentType":5126,
			"count":80,
			"type":"VEC3"
		},
		{
			"bufferView":26,
			"componentType":5126,
			"count":80,
			"type":"VEC2"
		},
		{
			"bufferView":27,
			"componentType":5123,
			"count":228,
			"type":"SCALAR"
		},
		{
			"bufferView":28,
			"componentType":5126,
			"count":219,
			"max":[
				0.015571452677249908,
				0.1279177963733673,
				0.019254565238952637
			],
			"min":[
				-0.015786027535796165,
				-0.05600295960903168,
				-0.010393112897872925
			],
			"type":"VEC3"
		},
		{
			"bufferView":29,
			"componentType":5126,
			"count":219,
			"type":"VEC3"
		},
		{
			"bufferView":30,
			"componentType":5126,
			"count":219,
			"type":"VEC2"
		},
		{
			"bufferView":31,
			"componentType":5123,
			"count":624,
			"type":"SCALAR"
		},
		{
			"bufferView":32,
			"componentType":5126,
			"count":587,
			"max":[
				0.01651116833090782,
				0.021039962768554688,
				0.046788040548563004
			],
			"min":[
				-0.016069337725639343,
				-0.01545804738998413,
				-0.04436831176280975
			],
			"type":"VEC3"
		},
		{
			"bufferView":33,
			"componentType":5126,
			"count":587,
			"type":"VEC3"
		},
		{
			"bufferView":34,
			"componentType":5126,
			"count":587,
			"type":"VEC2"
		},
		{
			"bufferView":35,
			"componentType":5123,
			"count":1560,
			"type":"SCALAR"
		},
		{
			"bufferView":36,
			"componentType":5126,
			"count":28290,
			"max":[
				0.014975745230913162,
				0.0007240176200866699,
				0.0793403685092926
			],
			"min":[
				-0.014938395470380783,
				-0.00013142824172973633,
				-0.0851874053478241
			],
			"type":"VEC3"
		},
		{
			"bufferView":37,
			"componentType":5126,
			"count":28290,
			"type":"VEC3"
		},
		{
			"bufferView":38,
			"componentType":5126,
			"count":28290,
			"type":"VEC2"
		},
		{
			"bufferView":39,
			"componentType":5123,
			"count":52272,
			"type":"SCALAR"
		},
		{
			"bufferView":40,
			"componentType":5126,
			"count":17448,
			"max":[
				0.01495428942143917,
				0.0005506277084350586,
				0.05346498638391495
			],
			"min":[
				-0.014959847554564476,
				-0.00030481815338134766,
				-0.0572173148393631
			],
			"type":"VEC3"
		},
		{
			"bufferView":41,
			"componentType":5126,
			"count":17448,
			"type":"VEC3"
		},
		{
			"bufferView":42,
			"componentType":5126,
			"count":17448,
			"type":"VEC2"
		},
		{
			"bufferView":43,
			"componentType":5123,
			"count":34848,
			"type":"SCALAR"
		},
		{
			"bufferView":44,
			"componentType":5126,
			"count":4020,
			"max":[
				0.043103378266096115,
				0.8965597152709961,
				0.4855401813983917
			],
			"min":[
				-0.04302660748362541,
				-0.787195086479187,
				-0.3228686451911926
			],
			"type":"VEC3"
		},
		{
			"bufferView":45,
			"componentType":5126,
			"count":4020,
			"type":"VEC3"
		},
		{
			"bufferView":46,
			"componentType":5126,
			"count":4020,
			"type":"VEC2"
		},
		{
			"bufferView":47,
			"componentType":5123,
			"count":12468,
			"type":"SCALAR"
		},
		{
			"bufferView":48,
			"componentType":5126,
			"count":2,
			"max":[
				2.0833333333333335
			],
			"min":[
				0.041666666666666664
			],
			"type":"SCALAR"
		},
		{
			"bufferView":49,
			"componentType":5126,
			"count":2,
			"type":"VEC3"
		},
		{
			"bufferView":50,
			"componentType":5126,
			"count":50,
			"max":[
				2.0833333333333335
			],
			"min":[
				0.041666666666666664
			],
			"type":"SCALAR"
		},
		{
			"bufferView":51,
			"componentType":5126,
			"count":50,
			"type":"VEC4"
		},
		{
			"bufferView":52,
			"componentType":5126,
			"count":2,
			"type":"VEC3"
		}
	],
	"bufferViews":[
		{
			"buffer":0,
			"byteLength":2304,
			"byteOffset":0,
			"target":34962
		},
		{
			"buffer":0,
			"byteLength":2304,
			"byteOffset":2304,
			"target":34962
		},
		{
			"buffer":0,
			"byteLength":1536,
			"byteOffset":4608,
			"target":34962
		},
		{
			"buffer":0,
			"byteLength":936,
			"byteOffset":6144,
			"target":34963
		},
		{
			"buffer":0,
			"byteLength":14724,
			"byteOffset":7080,
			"target":34962
		},
		{
			"buffer":0,
			"byteLength":14724,
			"byteOffset":21804,
			"target":34962
		},
		{
			"buffer":0,
			"byteLength":9816,
			"byteOffset":36528,
			"target":34962
		},
		{
			"buffer":0,
			"byteLength":5748,
			"byteOffset":46344,
			"target":34963
		},
		{
			"buffer":0,
			"byteLength":2016,
			"byteOffset":52092,
			"target":34962
		},
		{
			"buffer":0,
			"byteLength":2016,
			"byteOffset":54108,
			"target":34962
		},
		{
			"buffer":0,
			"byteLength":1344,
			"byteOffset":56124,
			"target":34962
		},
		{
			"buffer":0,
			"byteLength":648,
			"byteOffset":57468,
			"target":34963
		},
		{
			"buffer":0,
			"byteLength":1296,
			"byteOffset":58116,
			"target":34962
		},
		{
			"buffer":0,
			"byteLength":1296,
			"byteOffset":59412,
			"target":34962
		},
		{
			"buffer":0,
			"byteLength":864,
			"byteOffset":60708,
			"target":34962
		},
		{
			"buffer":0,
			"byteLength":600,
			"byteOffset":61572,
			"target":34963
		},
		{
			"buffer":0,
			"byteLength":23052,
			"byteOffset":62172,
			"target":34962
		},
		{
			"buffer":0,
			"byteLength":23052,
			"byteOffset":85224,
			"target":34962
		},
		{
			"buffer":0,
			"byteLength":15368,
			"byteOffset":108276,
			"target":34962
		},
		{
			"buffer":0,
			"byteLength":5196,
			"byteOffset":123644,
			"target":34963
		},
		{
			"buffer":0,
			"byteLength":2472,
			"byteOffset":128840,
			"target":34962
		},
		{
			"buffer":0,
			"byteLength":2472,
			"byteOffset":131312,
			"target":34962
		},
		{
			"buffer":0,
			"byteLength":1648,
			"byteOffset":133784,
			"target":34962
		},
		{
			"buffer":0,
			"byteLength":840,
			"byteOffset":135432,
			"target":34963
		},
		{
			"buffer":0,
			"byteLength":960,
			"byteOffset":136272,
			"target":34962
		},
		{
			"buffer":0,
			"byteLength":960,
			"byteOffset":137232,
			"target":34962
		},
		{
			"buffer":0,
			"byteLength":640,
			"byteOffset":138192,
			"target":34962
		},
		{
			"buffer":0,
			"byteLength":456,
			"byteOffset":138832,
			"target":34963
		},
		{
			"buffer":0,
			"byteLength":2628,
			"byteOffset":139288,
			"target":34962
		},
		{
			"buffer":0,
			"byteLength":2628,
			"byteOffset":141916,
			"target":34962
		},
		{
			"buffer":0,
			"byteLength":1752,
			"byteOffset":144544,
			"target":34962
		},
		{
			"buffer":0,
			"byteLength":1248,
			"byteOffset":146296,
			"target":34963
		},
		{
			"buffer":0,
			"byteLength":7044,
			"byteOffset":147544,
			"target":34962
		},
		{
			"buffer":0,
			"byteLength":7044,
			"byteOffset":154588,
			"target":34962
		},
		{
			"buffer":0,
			"byteLength":4696,
			"byteOffset":161632,
			"target":34962
		},
		{
			"buffer":0,
			"byteLength":3120,
			"byteOffset":166328,
			"target":34963
		},
		{
			"buffer":0,
			"byteLength":339480,
			"byteOffset":169448,
			"target":34962
		},
		{
			"buffer":0,
			"byteLength":339480,
			"byteOffset":508928,
			"target":34962
		},
		{
			"buffer":0,
			"byteLength":226320,
			"byteOffset":848408,
			"target":34962
		},
		{
			"buffer":0,
			"byteLength":104544,
			"byteOffset":1074728,
			"target":34963
		},
		{
			"buffer":0,
			"byteLength":209376,
			"byteOffset":1179272,
			"target":34962
		},
		{
			"buffer":0,
			"byteLength":209376,
			"byteOffset":1388648,
			"target":34962
		},
		{
			"buffer":0,
			"byteLength":139584,
			"byteOffset":1598024,
			"target":34962
		},
		{
			"buffer":0,
			"byteLength":69696,
			"byteOffset":1737608,
			"target":34963
		},
		{
			"buffer":0,
			"byteLength":48240,
			"byteOffset":1807304,
			"target":34962
		},
		{
			"buffer":0,
			"byteLength":48240,
			"byteOffset":1855544,
			"target":34962
		},
		{
			"buffer":0,
			"byteLength":32160,
			"byteOffset":1903784,
			"target":34962
		},
		{
			"buffer":0,
			"byteLength":24936,
			"byteOffset":1935944,
			"target":34963
		},
		{
			"buffer":0,
			"byteLength":8,
			"byteOffset":1960880
		},
		{
			"buffer":0,
			"byteLength":24,
			"byteOffset":1960888
		},
		{
			"buffer":0,
			"byteLength":200,
			"byteOffset":1960912
		},
		{
			"buffer":0,
			"byteLength":800,
			"byteOffset":1961112
		},
		{
			"buffer":0,
			"byteLength":24,
			"byteOffset":1961912
		}
	],
	"samplers":[
		{
			"magFilter":9729,
			"minFilter":9987
		}
	],
	"buffers":[
		{
			"byteLength":1961936,
			"uri":"Animated_fitness_health.bin"
		}
	]
}
